<?xml version="1.0" standalone="no"?>
<!DOCTYPE svg PUBLIC "-//W3C//DTD SVG 20010904//EN"
 "http://www.w3.org/TR/2001/REC-SVG-20010904/DTD/svg10.dtd">
<svg version="1.0" xmlns="http://www.w3.org/2000/svg"
 width="4167.000000pt" height="3873.000000pt" viewBox="0 0 4167.000000 3873.000000"
 preserveAspectRatio="xMidYMid meet">

<g transform="translate(0.000000,3873.000000) scale(0.100000,-0.100000)"
fill="#000000" stroke="none">
<path d="M21200 38264 c-25 -2 -112 -9 -195 -14 -1312 -91 -2756 -541 -4049
-1262 -581 -324 -798 -472 -1420 -966 -341 -272 -419 -332 -576 -442 -137 -96
-141 -100 -40 -45 47 26 189 97 315 160 1278 627 2731 1051 4103 1195 643 67
1538 67 2136 0 1651 -187 3127 -775 4468 -1782 416 -313 712 -571 1129 -988
489 -487 794 -840 1209 -1395 234 -313 292 -397 422 -615 801 -1336 1373
-3052 1527 -4580 40 -397 46 -519 46 -1000 0 -465 -5 -569 -41 -925 -129
-1290 -554 -2550 -1247 -3700 -620 -1028 -1461 -1986 -2522 -2874 -417 -350
-895 -707 -1349 -1011 -150 -99 -213 -131 -541 -272 -533 -229 -983 -392
-1670 -605 -187 -58 -419 -129 -515 -159 -292 -91 -591 -164 -815 -198 -53 -8
504 3 680 14 1900 116 3485 509 4894 1214 1371 686 2488 1632 3395 2875 1096
1503 1857 3531 2055 5481 45 437 55 647 55 1155 1 480 -6 654 -40 1025 -183
2032 -913 3952 -2102 5535 -1364 1816 -3267 3118 -5492 3760 -735 212 -1461
340 -2310 406 -134 10 -1408 21 -1510 13z"/>
<path d="M20715 36050 c-1788 -264 -3253 -797 -4520 -1643 -1542 -1030 -2695
-2519 -3370 -4351 -300 -816 -506 -1743 -555 -2496 -6 -85 -13 -326 -17 -535
-29 -1798 329 -3406 1062 -4776 960 -1792 2578 -3195 4700 -4076 631 -262
1391 -497 1965 -608 219 -42 206 -43 -220 -9 -102 8 -284 26 -405 39 -325 37
-347 38 -215 10 323 -68 818 -115 1210 -115 1082 0 2204 259 3339 772 1011
457 2096 1173 2934 1935 75 69 137 127 137 129 0 2 -84 -52 -187 -120 -1771
-1162 -3800 -1558 -5947 -1161 -673 125 -1418 354 -2032 626 -661 292 -1375
731 -1907 1171 -451 374 -876 821 -1217 1278 -799 1072 -1327 2446 -1494 3885
-66 561 -73 1233 -20 1795 138 1471 640 2880 1462 4105 651 969 1465 1734
2432 2287 1627 929 3718 1247 5950 902 208 -32 663 -123 840 -168 74 -19 136
-34 137 -32 2 2 -36 28 -84 59 -1078 680 -2165 1037 -3398 1117 -247 16 -369
12 -580 -20z"/>
<path d="M21890 32666 c-973 -1187 -1588 -2395 -1830 -3596 -83 -413 -110
-667 -117 -1102 -6 -339 2 -519 33 -788 29 -260 111 -686 134 -700 14 -9 199
-26 430 -41 212 -14 637 -6 840 16 623 66 1136 233 1600 519 61 38 83 46 121
46 84 0 133 -30 171 -105 18 -34 20 -51 14 -125 -12 -168 -77 -384 -181 -595
-331 -676 -1023 -1185 -1984 -1459 -102 -29 -201 -57 -220 -62 l-34 -9 98
-145 c110 -164 153 -221 272 -367 l84 -103 690 0 690 0 143 218 c680 1030
1047 2042 1148 3162 19 216 16 791 -5 1010 -77 779 -269 1478 -609 2220 -327
713 -832 1476 -1333 2012 l-80 86 -75 -92z m176 -281 c489 -571 942 -1301
1232 -1987 61 -142 143 -358 167 -435 l6 -23 -1486 0 -1486 0 6 23 c20 62 161
412 225 552 279 618 674 1255 1159 1868 80 101 86 107 101 90 9 -10 43 -49 76
-88z"/>
<path d="M16106 31702 c-31 -951 -4 -1877 79 -2690 75 -731 185 -1300 346
-1787 l59 -180 373 0 c282 -1 411 -5 532 -18 476 -52 899 -139 1364 -282 113
-34 278 -81 367 -104 163 -41 556 -123 562 -116 2 2 -1 70 -7 152 -83 1149
-76 2148 15 2555 15 66 15 69 -6 98 -25 35 -383 377 -573 547 -1019 914 -2102
1620 -3053 1992 l-51 20 -7 -187z m384 -167 c686 -319 1451 -818 2155 -1406
77 -64 158 -133 180 -153 l40 -35 -1282 -1 -1281 0 -6 83 c-21 281 -33 1188
-19 1470 6 132 7 135 27 127 12 -4 95 -43 186 -85z"/>
<path d="M27750 31843 c-952 -411 -1880 -1015 -2780 -1811 -170 -151 -689
-663 -775 -765 l-48 -58 36 -227 c70 -432 96 -703 104 -1112 21 -1035 -179
-1975 -598 -2811 -168 -337 -388 -675 -542 -836 l-41 -43 30 0 c98 0 534 67
745 115 400 90 1690 725 1978 973 871 751 1476 1865 1795 3304 169 762 246
1522 246 2407 0 424 -21 912 -39 910 -3 0 -53 -21 -111 -46z m-35 -410 c15
-375 -8 -1210 -41 -1450 l-5 -43 -1260 0 -1259 0 65 59 c438 397 1128 895
1684 1215 262 151 763 406 797 406 8 0 14 -58 19 -187z"/>
<path d="M27526 27482 c-27 -75 -78 -207 -113 -292 -63 -152 -272 -585 -332
-686 -24 -42 -27 -51 -13 -48 9 2 422 63 917 135 495 72 901 132 903 134 8 8
-53 110 -98 164 -143 172 -474 395 -865 581 -148 71 -329 150 -342 150 -4 0
-30 -62 -57 -138z m992 -500 c78 -58 188 -160 181 -167 -4 -4 -292 -45 -316
-45 -10 0 -13 35 -13 156 l0 156 36 -21 c20 -12 71 -48 112 -79z"/>
<path d="M16690 26860 c-272 -16 -567 -59 -795 -116 -554 -140 -973 -519
-1133 -1024 -60 -189 -67 -244 -67 -495 1 -211 3 -240 27 -355 57 -263 112
-421 243 -685 137 -277 310 -540 531 -805 218 -262 540 -589 694 -705 36 -27
88 -68 116 -91 l51 -43 6 122 c19 402 213 652 557 713 92 16 533 19 700 3 382
-34 775 -123 1259 -285 108 -36 408 -145 666 -241 1265 -472 1732 -576 2505
-560 506 11 955 84 1495 242 912 268 1749 703 3925 2040 548 337 1048 641
1255 765 77 46 146 88 153 93 16 13 -31 34 -188 87 -376 126 -843 142 -1395
49 -413 -69 -1007 -260 -1203 -386 -579 -375 -1254 -725 -1842 -958 -328 -129
-637 -229 -930 -299 -175 -42 -273 -59 -490 -86 -862 -105 -1617 -63 -2234
125 -338 103 -662 268 -890 454 -82 67 -226 218 -226 236 0 8 39 14 123 19
416 23 878 91 1262 186 584 144 1043 350 1425 640 453 345 749 818 814 1301
l4 37 -116 -70 c-764 -453 -1770 -615 -2932 -472 -427 52 -832 142 -1305 288
-663 206 -1447 310 -2065 276z m590 -120 c485 -34 1007 -132 1463 -276 445
-141 843 -228 1322 -289 812 -103 1577 -50 2235 155 152 47 366 133 513 205
70 35 127 60 127 55 0 -20 -56 -162 -100 -255 -54 -114 -160 -278 -247 -380
l-59 -70 -92 -3 c-84 -2 -92 -5 -92 -22 0 -19 -8 -20 -165 -20 l-165 0 0 -25
0 -25 -225 0 c-218 0 -225 -1 -225 -20 0 -19 -7 -20 -225 -20 l-225 0 0 -45 0
-45 -220 0 -220 0 0 -25 c0 -25 -1 -25 -85 -25 -78 0 -85 -2 -85 -20 0 -19 -7
-20 -195 -20 l-195 0 0 -25 0 -25 -390 0 -390 0 0 -45 0 -45 -220 0 -220 0 0
-45 0 -45 -225 0 c-218 0 -225 -1 -225 -20 0 -19 -7 -20 -225 -20 l-225 0 0
-25 c0 -24 -3 -25 -55 -25 -48 0 -55 -2 -55 -20 0 -19 -7 -20 -195 -20 l-195
0 0 -25 0 -25 -195 0 c-188 0 -195 -1 -195 -20 0 -19 -7 -20 -220 -20 l-220 0
0 -45 0 -45 -225 0 -225 0 0 -45 0 -45 -220 0 c-213 0 -220 -1 -220 -20 0 -19
-7 -20 -225 -20 l-225 0 0 -25 0 -25 -225 0 -225 0 -1 -47 c-1 -46 -2 -43 -24
45 -62 247 -62 558 1 782 65 233 179 425 359 606 272 273 603 410 1161 479
271 34 629 44 904 25z"/>
<path d="M20373 24470 c-138 -21 -257 -40 -263 -42 -14 -4 208 -100 376 -161
97 -36 299 -99 428 -134 23 -6 32 -23 -116 200 -107 160 -121 177 -146 176
-15 -1 -140 -19 -279 -39z"/>
<path d="M18988 17633 c6 -2 18 -2 25 0 6 3 1 5 -13 5 -14 0 -19 -2 -12 -5z"/>
<path d="M21478 16773 c12 -2 32 -2 45 0 12 2 2 4 -23 4 -25 0 -35 -2 -22 -4z"/>
<path d="M16135 14543 c-74 -26 -429 -112 -545 -132 -338 -59 -417 -61 -2937
-61 l-2283 0 0 -55 0 -55 111 0 c138 0 227 -19 344 -74 97 -46 230 -140 289
-207 21 -23 55 -78 77 -123 75 -159 69 137 69 -3514 0 -2311 -3 -3296 -11
-3338 -26 -143 -100 -277 -218 -394 -152 -151 -302 -210 -533 -210 l-128 0 0
-55 0 -55 2994 0 2994 0 5 23 c3 12 121 533 262 1157 141 624 258 1143 261
1153 5 15 -2 17 -51 17 -35 0 -57 -4 -60 -12 -123 -361 -241 -613 -400 -853
-382 -577 -901 -903 -1561 -980 -105 -12 -284 -15 -976 -15 l-848 0 0 1625 0
1625 809 0 c865 0 897 -2 1051 -52 301 -98 540 -350 620 -654 23 -91 40 -219
40 -316 l0 -68 55 0 55 0 0 1335 0 1335 -55 0 -55 0 0 -67 c0 -228 -55 -422
-165 -588 -165 -248 -411 -398 -715 -434 -66 -8 -328 -11 -865 -9 l-770 3 -3
1683 -2 1682 998 0 c629 0 1029 -4 1082 -10 266 -33 511 -146 684 -315 216
-210 316 -479 316 -847 l0 -136 53 -4 c28 -2 53 -4 55 -3 1 1 1 454 0 1007
l-3 1005 -40 -14z"/>
<path d="M1224 14473 c4 -32 18 -121 32 -198 33 -190 60 -440 74 -675 8 -140
10 -1115 8 -3435 l-3 -3240 -27 -73 c-40 -109 -84 -177 -173 -267 -59 -60
-101 -92 -162 -123 -126 -65 -206 -82 -395 -82 l-158 0 0 -55 0 -55 1750 0
1750 0 0 55 0 55 -162 0 c-187 0 -255 13 -365 66 -181 87 -323 254 -380 449
-17 57 -18 197 -21 2404 -1 1290 1 2348 5 2351 5 4 1320 -1243 2923 -2771
l2915 -2779 49 0 49 0 -6 33 c-3 17 -17 93 -31 167 -28 154 -49 304 -73 540
-15 151 -17 448 -20 3462 -4 3654 -9 3367 62 3517 68 142 176 266 289 332 28
16 87 41 131 56 72 23 99 27 263 31 l182 4 0 54 0 54 -1745 0 -1745 0 0 -55 0
-55 139 0 c161 0 255 -16 350 -60 228 -107 384 -312 421 -556 7 -47 10 -804 8
-2363 l-3 -2295 -2918 2780 -2918 2779 -51 3 -50 3 6 -58z"/>
<path d="M37950 14499 c-141 -13 -328 -46 -476 -84 -805 -206 -1382 -796
-1547 -1580 -23 -108 -33 -177 -68 -480 -13 -109 1 -323 32 -482 98 -507 412
-963 929 -1349 52 -39 601 -406 1220 -815 619 -409 1172 -780 1230 -824 471
-356 640 -621 640 -1000 0 -344 -124 -634 -376 -876 -232 -222 -528 -352 -924
-405 -169 -23 -518 -23 -694 0 -497 64 -881 242 -1190 552 -406 407 -607 900
-594 1454 l3 150 -51 0 -50 0 -61 -117 c-113 -216 -188 -435 -236 -689 -41
-213 -52 -333 -51 -599 0 -230 2 -259 26 -370 36 -170 42 -182 146 -268 370
-308 998 -513 1812 -593 246 -25 770 -25 1010 0 1012 101 1778 497 2200 1136
213 322 331 711 361 1187 26 402 -33 732 -186 1049 -154 319 -411 610 -750
850 -38 28 -596 392 -1240 809 -643 417 -1210 788 -1260 823 -131 94 -228 177
-332 285 -202 209 -276 385 -277 657 -1 194 37 313 160 497 194 291 486 483
865 567 158 35 278 46 489 46 284 0 474 -27 692 -100 374 -125 662 -358 812
-658 63 -125 110 -309 122 -474 l7 -98 52 0 53 0 6 53 c6 48 146 1625 146
1640 0 4 -165 7 -366 7 -338 0 -385 2 -632 30 -303 33 -556 55 -816 70 -210
12 -700 11 -836 -1z"/>
<path d="M17030 14295 l0 -55 124 0 c149 0 249 -13 365 -46 280 -81 576 -291
775 -548 34 -45 545 -827 1135 -1738 l1072 -1658 -1142 -1617 c-628 -890
-1171 -1652 -1206 -1695 -91 -110 -248 -255 -350 -325 -238 -163 -459 -233
-737 -233 l-146 0 0 -55 0 -55 1425 0 1425 0 0 54 0 54 -132 4 c-126 3 -137 5
-202 36 -50 23 -89 53 -141 106 -151 152 -191 337 -112 510 21 45 1688 2518
1722 2554 10 11 167 -228 830 -1260 563 -875 826 -1293 843 -1338 76 -207 -35
-463 -246 -567 -74 -37 -78 -38 -209 -41 l-133 -4 0 -54 0 -54 1970 0 1970 0
0 54 0 54 -177 5 c-150 4 -193 9 -275 31 -305 82 -630 302 -820 556 -45 60
-2313 3559 -2366 3650 -14 24 9 60 973 1495 544 809 1013 1501 1043 1539 203
254 499 463 763 540 116 33 216 46 365 46 l124 0 0 55 0 55 -1420 0 -1420 0 0
-54 0 -54 128 -4 c117 -3 132 -6 192 -34 36 -17 88 -52 117 -78 50 -45 137
-170 161 -231 37 -95 33 -213 -12 -310 -25 -55 -1445 -2275 -1455 -2275 -3 0
-332 503 -731 1118 -574 886 -729 1131 -748 1187 -33 96 -28 229 11 324 55
132 171 243 294 281 48 15 93 20 174 20 l109 0 0 55 0 55 -1965 0 -1965 0 0
-55z"/>
<path d="M26050 14295 l0 -55 133 0 c100 0 153 -5 211 -20 213 -54 373 -204
433 -406 17 -56 18 -204 23 -2524 7 -2704 2 -2506 65 -2831 213 -1089 999
-1870 2197 -2184 679 -177 1602 -224 2278 -115 1354 219 2275 1086 2495 2350
51 293 48 145 54 2800 l6 2475 26 67 c37 94 81 159 155 227 130 119 254 161
476 161 l138 0 0 55 0 55 -1205 0 -1205 0 0 -55 0 -55 133 0 c159 0 250 -20
360 -77 95 -50 193 -148 235 -234 67 -136 62 63 62 -2606 0 -2632 2 -2540 -55
-2847 -77 -419 -248 -804 -488 -1101 -87 -107 -262 -277 -367 -354 -257 -191
-553 -314 -910 -378 -135 -25 -166 -27 -455 -27 -282 -1 -321 1 -438 22 -443
80 -777 242 -1064 516 -195 186 -334 379 -463 641 -148 300 -234 612 -282
1020 -10 87 -13 615 -13 2540 l0 2430 24 65 c51 140 153 255 284 322 99 49
192 68 344 68 l133 0 0 55 0 55 -1660 0 -1660 0 0 -55z"/>
<path d="M30140 5284 c0 -237 2 -274 15 -274 11 0 15 12 15 48 0 119 66 229
167 278 l58 29 263 3 262 3 0 -934 c0 -1046 3 -994 -71 -1062 -48 -44 -77 -55
-135 -55 -32 0 -44 -4 -44 -15 0 -13 60 -15 480 -15 420 0 480 2 480 15 0 11
-12 15 -45 15 -75 0 -142 44 -179 117 -14 29 -16 127 -16 983 l0 951 258 -3
257 -3 55 -28 c108 -56 159 -134 168 -259 3 -48 9 -68 18 -68 12 0 14 49 14
274 l0 274 -45 -14 c-133 -40 -228 -44 -959 -44 -725 0 -846 5 -957 40 l-59
18 0 -274z"/>
<path d="M1911 4865 c-157 -377 -287 -685 -290 -685 -12 1 -401 1127 -401
1158 0 70 60 132 128 132 22 0 32 5 32 15 0 13 -60 15 -480 15 -400 0 -480 -2
-480 -14 0 -9 17 -15 50 -18 74 -7 157 -54 201 -112 30 -39 103 -230 404
-1049 202 -551 374 -1019 383 -1039 23 -59 38 -48 46 33 4 40 19 111 32 158
21 70 485 1185 530 1271 12 24 14 23 54 -65 22 -49 177 -391 344 -760 208
-461 308 -671 319 -673 15 -3 17 6 17 61 0 36 7 99 15 141 17 91 558 1832 585
1886 40 78 160 150 250 150 29 0 40 4 40 15 0 13 -44 15 -335 15 -277 0 -335
-2 -335 -14 0 -9 16 -15 45 -19 25 -2 55 -13 67 -23 26 -24 48 -74 48 -111 0
-15 -74 -287 -164 -603 l-163 -575 -32 70 c-448 990 -601 1320 -612 1323 -10
1 -101 -207 -298 -683z"/>
<path d="M5410 5527 c-72 -20 -105 -21 -782 -24 -612 -3 -708 -6 -708 -18 0
-10 11 -15 35 -15 74 0 164 -57 189 -121 14 -35 16 -142 16 -952 l0 -913 -26
-53 c-35 -70 -97 -111 -166 -111 -36 0 -48 -4 -48 -15 0 -13 95 -15 817 -13
l817 3 71 318 c52 231 68 317 58 315 -8 -2 -29 -40 -48 -85 -89 -218 -232
-352 -431 -403 -67 -17 -111 -20 -326 -20 l-248 0 0 445 0 445 243 0 c222 0
246 -2 287 -21 90 -40 147 -119 157 -215 4 -36 10 -54 19 -54 12 0 14 63 14
360 0 313 -2 360 -15 360 -11 0 -15 -11 -15 -42 0 -88 -71 -191 -160 -232 -41
-19 -67 -21 -288 -24 l-242 -3 2 463 3 463 300 0 300 0 63 -29 c108 -50 162
-132 178 -268 15 -127 24 -44 24 212 0 149 -3 270 -7 269 -5 -1 -42 -10 -83
-22z"/>
<path d="M14690 5527 c-72 -20 -102 -21 -782 -24 -612 -3 -708 -6 -708 -18 0
-11 12 -15 40 -15 83 0 178 -71 200 -148 14 -53 14 -1788 -1 -1847 -13 -53
-70 -122 -116 -141 -18 -8 -53 -14 -78 -14 -33 0 -45 -4 -45 -15 0 -13 98 -15
820 -15 451 0 820 2 820 4 0 2 32 143 70 314 39 171 70 313 70 316 0 3 -6 6
-12 6 -7 0 -28 -37 -45 -83 -79 -199 -219 -342 -392 -399 -60 -20 -92 -22
-338 -26 l-273 -4 0 446 0 446 238 0 c172 -1 247 -5 275 -14 88 -32 150 -110
170 -216 6 -33 15 -60 19 -60 5 0 8 162 8 360 0 335 -8 433 -24 309 -9 -70
-40 -131 -87 -173 -73 -67 -88 -70 -356 -74 l-243 -4 0 467 0 467 298 -4 c278
-3 301 -5 352 -26 116 -46 178 -133 188 -262 3 -50 9 -70 18 -70 12 0 14 48
14 270 0 210 -3 270 -12 269 -7 -1 -47 -11 -88 -22z"/>
<path d="M10510 5537 c0 -2 7 -48 15 -103 12 -82 15 -256 15 -1037 0 -845 -2
-941 -16 -970 -37 -73 -94 -107 -179 -107 -42 0 -55 -3 -55 -15 0 -13 59 -15
475 -15 416 0 475 2 475 15 0 11 -12 15 -50 15 -28 0 -65 6 -83 14 -42 17 -93
76 -107 123 -7 26 -10 236 -8 672 l3 635 800 -762 c440 -419 805 -762 811
-762 7 0 5 26 -5 78 -13 66 -16 214 -16 1049 l0 971 30 44 c39 56 102 88 172
88 40 0 53 4 53 15 0 13 -60 15 -480 15 -420 0 -480 -2 -480 -15 0 -11 12 -15
45 -15 82 0 149 -40 186 -112 18 -36 19 -65 17 -683 l-3 -645 -793 755 c-674
642 -822 777 -822 752z"/>
<path d="M15945 5525 c-134 -29 -229 -79 -314 -164 -112 -112 -162 -244 -165
-431 -1 -124 21 -204 85 -299 66 -98 147 -163 498 -395 404 -267 448 -302 492
-391 29 -59 31 -71 27 -137 -3 -52 -12 -88 -31 -123 -134 -262 -603 -290 -842
-50 -102 101 -165 253 -165 398 0 50 -15 47 -44 -10 -56 -112 -85 -293 -66
-414 12 -81 26 -98 130 -153 140 -74 317 -109 550 -108 307 0 516 75 673 241
107 114 157 251 157 430 0 113 -18 190 -63 275 -61 115 -130 171 -532 432
-374 242 -455 305 -489 378 -30 63 -26 150 9 215 49 88 141 156 247 181 65 15
226 12 291 -5 164 -43 263 -141 289 -286 6 -34 15 -59 22 -59 9 0 18 66 32
228 l19 227 -140 7 c-77 3 -185 11 -240 17 -135 14 -357 12 -430 -4z"/>
<path d="M17955 5524 c-110 -23 -226 -85 -304 -163 -109 -108 -156 -221 -168
-403 -10 -161 35 -281 152 -406 60 -64 123 -110 425 -311 401 -266 483 -334
515 -430 63 -192 -89 -393 -325 -430 -367 -59 -673 164 -697 507 -4 53 -10 82
-17 79 -18 -5 -64 -107 -81 -182 -23 -98 -29 -248 -13 -309 11 -42 21 -54 68
-87 192 -133 618 -184 915 -109 271 68 462 252 510 492 31 156 14 306 -48 422
-60 112 -133 171 -511 416 -191 124 -373 245 -404 270 -73 59 -109 112 -124
182 -18 88 6 154 86 233 83 84 143 107 292 113 130 5 199 -7 283 -49 107 -54
175 -147 197 -271 7 -42 21 -50 28 -15 5 26 36 381 36 415 0 21 -3 22 -97 22
-54 0 -161 7 -238 15 -176 18 -388 18 -480 -1z"/>
<path d="M20955 5524 c-241 -51 -419 -228 -460 -461 -40 -225 1 -369 149 -520
68 -68 140 -121 441 -321 462 -307 499 -344 498 -498 0 -119 -66 -230 -170
-286 -88 -48 -157 -63 -288 -62 -103 1 -131 5 -198 28 -99 33 -168 78 -232
148 -92 101 -145 230 -145 355 0 47 -4 63 -14 63 -16 0 -59 -93 -83 -181 -22
-81 -25 -312 -5 -347 20 -35 124 -98 210 -126 302 -100 670 -94 907 13 180 82
296 205 352 376 22 69 26 98 27 210 1 173 -25 251 -121 367 -60 73 -127 121
-487 354 -187 120 -364 241 -394 269 -137 124 -135 277 4 404 77 70 142 93
280 99 64 2 135 -1 167 -8 164 -34 290 -156 304 -296 7 -61 29 -74 37 -21 5
32 36 390 36 415 0 9 -26 12 -97 12 -54 0 -161 7 -238 15 -177 18 -389 18
-480 -1z"/>
<path d="M23490 5534 c-14 -2 -68 -12 -120 -20 -446 -76 -782 -371 -885 -779
-68 -269 -46 -608 54 -845 73 -171 243 -364 407 -462 329 -197 844 -241 1246
-108 286 95 513 294 633 553 119 257 136 657 40 937 -124 362 -420 612 -833
701 -76 16 -141 21 -307 24 -115 2 -221 2 -235 -1z m359 -139 c265 -63 469
-317 536 -669 40 -208 37 -492 -6 -695 -100 -463 -423 -719 -819 -647 -289 52
-489 285 -572 668 -19 89 -22 134 -22 333 -1 241 8 318 55 477 27 93 109 252
162 317 89 106 211 186 335 216 77 18 252 18 331 0z"/>
<path d="M34910 5530 c-373 -52 -656 -215 -833 -482 -124 -186 -176 -381 -177
-658 0 -425 158 -739 478 -948 206 -134 443 -194 762 -194 272 0 455 38 655
136 379 187 585 540 585 1001 0 335 -89 587 -278 786 -175 185 -354 282 -624
340 -106 23 -454 35 -568 19z m445 -150 c253 -87 432 -344 491 -706 24 -146
24 -429 0 -569 -23 -131 -76 -290 -129 -384 -63 -114 -180 -227 -287 -280
-276 -136 -610 -65 -793 167 -137 175 -210 404 -224 707 -22 487 139 878 424
1028 104 55 165 67 318 63 106 -2 143 -7 200 -26z"/>
<path d="M36965 5498 c4 -24 11 -72 16 -108 4 -36 8 -485 9 -999 l0 -934 -25
-43 c-36 -61 -96 -94 -168 -94 -44 0 -57 -3 -57 -15 0 -13 59 -15 475 -15 398
0 475 2 475 14 0 10 -18 15 -64 18 -82 5 -127 34 -161 103 l-25 51 2 643 3
644 800 -762 c440 -418 805 -761 811 -761 7 0 6 21 -4 68 -13 56 -16 217 -19
1027 -3 675 -1 971 7 997 23 81 103 137 193 138 35 0 47 4 47 15 0 13 -59 15
-475 15 -416 0 -475 -2 -475 -15 0 -11 12 -15 45 -15 82 0 149 -40 186 -112
18 -36 19 -65 17 -683 l-3 -646 -793 756 c-437 415 -801 755 -809 755 -13 0
-14 -8 -8 -42z"/>
<path d="M40260 5525 c-137 -27 -242 -86 -334 -186 -96 -104 -146 -247 -146
-423 0 -149 58 -278 178 -394 32 -31 210 -156 407 -287 193 -127 376 -255 408
-285 82 -75 111 -135 110 -228 0 -221 -219 -372 -506 -348 -96 8 -211 44 -277
86 -148 95 -250 278 -250 447 0 47 -4 63 -14 63 -19 0 -72 -124 -90 -213 -19
-89 -20 -247 -3 -297 33 -95 274 -188 547 -210 489 -39 848 147 934 485 58
229 13 427 -131 577 -55 57 -135 113 -432 306 -201 130 -389 259 -420 287
-147 135 -132 312 37 433 70 50 156 72 276 72 115 -1 166 -10 241 -45 113 -54
191 -155 202 -260 4 -37 10 -55 19 -55 8 0 14 3 14 8 0 4 9 104 20 222 11 118
20 218 20 223 0 4 -44 7 -97 7 -54 0 -161 7 -238 15 -169 18 -386 18 -475 0z"/>
<path d="M6090 5485 c0 -11 12 -15 43 -15 58 -1 126 -38 162 -89 l30 -43 3
-921 c2 -636 0 -933 -8 -959 -23 -79 -102 -138 -185 -138 -33 0 -45 -4 -45
-15 0 -13 98 -15 818 -15 l818 0 68 306 c37 169 70 313 73 320 3 8 -1 14 -10
14 -8 0 -22 -20 -32 -47 -68 -183 -194 -336 -329 -401 -110 -53 -170 -62 -448
-62 l-248 0 0 928 c0 1026 -2 998 62 1059 44 41 72 54 131 62 28 3 52 12 55
19 3 9 -97 12 -477 12 -421 0 -481 -2 -481 -15z"/>
<path d="M8210 5485 c0 -11 11 -15 38 -15 21 0 62 -12 90 -26 41 -20 59 -38
82 -78 l30 -51 -3 -932 -2 -931 -30 -44 c-40 -56 -96 -88 -157 -88 -36 0 -48
-4 -48 -15 0 -13 97 -15 818 -15 l817 0 54 243 c30 133 62 277 72 320 23 104
4 103 -40 -3 -67 -164 -180 -299 -304 -362 -118 -59 -130 -61 -429 -65 l-278
-5 0 934 c0 620 4 946 11 971 21 77 111 146 190 147 23 0 39 6 43 15 5 13 -52
15 -474 15 -420 0 -480 -2 -480 -15z"/>
<path d="M25330 5485 c0 -11 11 -15 38 -15 80 -1 170 -69 191 -147 7 -25 11
-341 11 -939 l0 -900 -26 -53 c-34 -68 -85 -103 -160 -109 -37 -3 -54 -9 -54
-18 0 -12 130 -14 814 -14 767 0 815 1 820 18 11 37 136 599 136 611 0 31 -23
0 -55 -73 -78 -180 -177 -296 -306 -360 -115 -56 -179 -66 -456 -66 l-243 0 0
948 0 949 23 44 c30 56 98 100 167 107 33 3 50 9 50 18 0 12 -79 14 -475 14
-416 0 -475 -2 -475 -15z"/>
<path d="M27430 5485 c0 -11 11 -15 43 -15 57 -1 119 -30 148 -71 l24 -34 5
-720 c6 -706 6 -722 28 -800 85 -305 306 -496 660 -570 185 -38 462 -39 627 0
263 61 466 229 562 465 56 140 56 138 62 912 6 704 6 717 27 744 36 50 70 67
134 72 42 3 60 8 60 18 0 12 -56 14 -330 14 -287 0 -330 -2 -330 -15 0 -11 11
-15 43 -15 66 0 127 -36 155 -90 l23 -45 -4 -700 c-4 -791 -2 -770 -82 -932
-104 -211 -292 -322 -546 -323 -333 0 -561 218 -609 581 -7 56 -10 307 -8 744
l3 660 23 33 c31 43 90 72 147 72 33 0 45 4 45 15 0 13 -57 15 -455 15 -398 0
-455 -2 -455 -15z"/>
<path d="M32530 5485 c0 -10 10 -15 34 -15 79 0 152 -45 185 -115 l21 -45 -2
-929 -3 -929 -30 -44 c-40 -56 -96 -88 -157 -88 -36 0 -48 -4 -48 -15 0 -13
59 -15 475 -15 416 0 475 2 475 15 0 11 -12 15 -49 15 -62 0 -135 46 -165 105
-21 39 -21 52 -24 961 l-2 921 28 54 c22 43 38 59 81 81 32 17 69 28 92 28 28
0 39 4 39 15 0 13 -59 15 -475 15 -416 0 -475 -2 -475 -15z"/>
<path d="M2792 2639 c-48 -24 -70 -52 -81 -101 -18 -80 26 -130 114 -132 90
-1 165 65 165 145 0 90 -104 136 -198 88z"/>
<path d="M21609 2627 c-44 -29 -79 -82 -79 -119 0 -74 53 -114 141 -106 85 9
140 64 141 143 1 42 -3 52 -31 77 -42 37 -120 40 -172 5z"/>
<path d="M23200 2632 c-76 -38 -106 -141 -57 -198 31 -36 116 -45 171 -19 62
30 98 104 82 170 -15 58 -123 84 -196 47z"/>
<path d="M37980 2632 c-77 -42 -106 -141 -57 -198 20 -23 34 -28 83 -31 43 -3
68 1 94 14 76 40 105 142 57 199 -32 37 -124 45 -177 16z"/>
<path d="M5891 2548 c-6 -29 -31 -170 -56 -313 -25 -143 -51 -285 -57 -315
l-10 -55 -23 64 c-56 155 -183 238 -376 249 -322 16 -584 -184 -685 -525 -32
-109 -44 -308 -24 -394 40 -170 155 -292 315 -334 75 -19 211 -19 294 0 131
31 274 129 343 237 18 27 34 45 36 40 2 -6 -6 -61 -17 -123 -32 -173 -39 -159
78 -159 l99 0 17 93 c9 50 76 428 149 840 l132 747 -102 0 -103 0 -10 -52z
m-360 -580 c119 -55 181 -156 187 -303 9 -197 -73 -374 -223 -480 -83 -60
-160 -87 -262 -93 -273 -16 -417 173 -359 469 42 213 178 371 365 421 94 26
220 19 292 -14z"/>
<path d="M12591 2538 c-71 -408 -117 -658 -122 -658 -3 0 -13 25 -23 55 -22
71 -103 161 -178 197 -146 71 -361 63 -525 -20 -197 -100 -333 -301 -378 -559
-39 -223 0 -399 115 -513 86 -87 198 -130 340 -130 166 0 298 51 411 158 39
36 82 85 96 109 14 24 27 43 28 41 2 -2 -8 -61 -21 -133 -13 -71 -23 -138 -24
-147 0 -16 11 -18 100 -18 95 0 100 1 105 23 3 12 68 380 145 817 77 437 142
805 145 818 5 22 4 22 -99 22 l-104 0 -11 -62z m-401 -554 c151 -45 234 -166
234 -339 0 -159 -55 -296 -162 -404 -110 -111 -231 -158 -384 -149 -60 4 -91
11 -142 37 -119 58 -168 149 -168 312 1 322 210 554 503 558 36 1 90 -6 119
-15z"/>
<path d="M27720 1757 l-145 -832 99 -3 c54 -1 101 0 104 3 6 5 292 1619 292
1648 0 15 -11 17 -102 17 l-103 0 -145 -833z"/>
<path d="M32935 2578 c-6 -19 -285 -1627 -285 -1644 0 -12 17 -14 102 -12
l102 3 143 815 c78 448 142 823 143 833 0 15 -11 17 -100 17 -72 0 -102 -4
-105 -12z"/>
<path d="M33556 2563 c-11 -54 -286 -1625 -286 -1634 0 -5 46 -9 103 -9 l102
0 143 818 c79 449 146 825 148 835 5 15 -4 17 -100 17 l-104 0 -6 -27z"/>
<path d="M34661 1778 c-78 -447 -145 -823 -148 -835 -5 -23 -4 -23 99 -23
l104 0 23 138 c22 124 41 189 41 136 0 -12 14 -48 30 -81 152 -303 660 -275
906 50 100 132 160 303 171 482 10 174 -25 290 -118 389 -73 79 -160 122 -275
136 -86 11 -202 0 -276 -26 -119 -42 -242 -138 -307 -239 -22 -35 -30 -42 -26
-25 2 14 30 167 60 340 30 173 58 327 61 343 l6 27 -104 0 -103 0 -144 -812z
m841 179 c136 -67 198 -211 169 -396 -41 -266 -199 -437 -433 -472 -174 -26
-323 42 -389 177 -19 40 -24 68 -27 157 -4 94 -1 118 22 190 45 146 141 264
265 326 84 43 121 50 236 48 87 -2 108 -6 157 -30z"/>
<path d="M16741 2520 c-125 -27 -263 -130 -315 -235 -34 -69 -50 -154 -41
-221 6 -52 48 -152 86 -205 l20 -29 -53 0 c-282 -2 -513 -271 -495 -577 11
-192 129 -317 328 -346 153 -22 302 26 408 132 47 47 66 77 101 159 25 55 47
99 51 96 4 -2 67 -87 140 -189 l134 -185 107 0 108 0 -143 212 c-408 605 -557
829 -578 869 -27 52 -30 144 -6 200 40 97 125 152 232 153 82 1 134 -20 168
-68 19 -27 22 -43 22 -134 l0 -102 93 0 c79 0 94 3 100 18 4 9 7 64 7 122 -1
91 -4 112 -26 161 -55 117 -145 168 -309 175 -52 2 -115 -1 -139 -6z m-207
-864 c176 -53 236 -258 125 -426 -104 -155 -327 -199 -453 -89 -61 54 -80 106
-74 208 13 220 205 366 402 307z"/>
<path d="M18780 2515 c-235 -58 -360 -208 -360 -434 0 -112 19 -167 81 -235
56 -61 119 -97 279 -159 218 -84 291 -131 331 -213 18 -38 21 -58 17 -122 -7
-118 -54 -195 -150 -247 -44 -24 -68 -30 -138 -33 -99 -5 -147 6 -212 47 -60
38 -96 94 -111 170 l-12 61 -109 0 -109 0 7 -52 c28 -206 163 -341 384 -384
203 -39 401 11 536 136 71 66 119 157 136 263 25 148 -9 268 -98 348 -49 44
-176 108 -302 153 -203 73 -279 131 -301 232 -14 63 -1 147 32 200 85 138 365
166 483 48 35 -35 65 -99 66 -136 l0 -28 111 0 112 0 -5 49 c-7 68 -58 172
-113 226 -51 51 -139 96 -223 114 -71 15 -264 13 -332 -4z"/>
<path d="M8580 2514 c0 -10 -271 -1547 -277 -1572 l-6 -24 364 4 c333 4 371 7
442 26 105 29 169 65 243 137 95 93 143 210 144 347 0 134 -65 238 -182 288
-55 24 -73 40 -44 40 7 0 45 16 83 35 152 76 243 226 243 400 0 125 -49 214
-149 268 -88 49 -168 57 -532 57 -181 0 -329 -3 -329 -6z m685 -199 c83 -42
108 -91 102 -195 -8 -152 -100 -256 -255 -289 -67 -14 -442 -15 -442 -1 0 12
66 390 81 468 l11 54 222 -4 222 -3 59 -30z m-136 -669 c63 -23 108 -60 132
-108 18 -35 21 -54 17 -122 -8 -134 -71 -226 -197 -285 -55 -25 -61 -26 -298
-29 -134 -2 -243 -1 -243 2 0 9 89 515 96 545 l5 23 222 -4 c175 -4 231 -8
266 -22z"/>
<path d="M29004 2463 c3 -27 31 -365 61 -753 30 -388 58 -724 61 -748 l5 -43
126 3 125 3 296 643 c162 353 297 641 299 639 2 -3 33 -278 68 -613 36 -335
67 -624 70 -642 l6 -33 125 3 125 3 340 788 c186 433 339 790 339 793 0 3 -50
3 -112 2 l-112 -3 -267 -663 c-146 -364 -268 -665 -271 -667 -2 -2 -34 287
-71 643 -37 356 -70 657 -73 670 -4 21 -8 22 -118 22 l-113 0 -304 -665 c-166
-366 -305 -663 -308 -660 -3 4 -69 1208 -71 1303 0 22 -2 22 -116 22 l-116 0
6 -47z"/>
<path d="M686 2463 c-13 -64 -266 -1521 -266 -1532 0 -8 28 -11 103 -9 l102 3
106 608 c59 334 109 610 112 613 3 3 10 -18 17 -48 6 -29 68 -305 138 -613
l127 -560 91 -3 92 -3 353 615 c194 338 355 613 357 611 2 -1 -44 -275 -102
-607 -58 -332 -106 -607 -106 -611 0 -4 46 -6 102 -5 l102 3 132 750 c73 413
136 765 139 783 l6 32 -124 0 -125 0 -377 -637 c-208 -351 -383 -644 -390
-651 -10 -11 -42 105 -170 625 -87 351 -160 644 -162 651 -4 9 -39 12 -128 12
l-123 0 -6 -27z"/>
<path d="M23808 2458 c-3 -7 -16 -77 -29 -155 l-23 -142 -95 -3 -96 -3 -12
-70 c-19 -114 -26 -105 77 -105 50 0 90 -2 90 -4 0 -3 -30 -170 -66 -373 -69
-390 -75 -464 -41 -544 41 -99 143 -141 332 -137 l120 3 16 85 15 85 -105 5
c-122 6 -163 22 -180 71 -17 49 -15 71 52 449 l63 355 161 3 160 2 12 63 c7
34 14 74 17 90 l6 27 -162 0 -162 0 6 28 c10 45 46 256 46 270 0 9 -26 12 -99
12 -70 0 -100 -4 -103 -12z"/>
<path d="M3851 2175 c-143 -32 -277 -122 -351 -233 -35 -54 -36 -49 -10 93 11
60 20 115 20 122 0 11 -22 13 -102 11 l-103 -3 -107 -605 c-59 -333 -107 -613
-108 -623 0 -16 10 -17 102 -15 l103 3 57 325 c31 179 64 354 72 390 53 218
203 357 397 368 148 9 240 -30 295 -124 49 -83 46 -152 -25 -559 -34 -192 -64
-362 -67 -377 l-6 -28 102 0 c71 0 102 4 105 13 3 6 34 179 70 383 86 491 87
588 6 716 -78 123 -271 184 -450 143z"/>
<path d="M10405 2164 c-94 -20 -237 -90 -311 -151 -168 -140 -264 -356 -264
-593 0 -160 34 -259 121 -354 188 -205 593 -209 860 -8 74 55 167 169 208 255
101 212 107 479 15 633 -61 102 -128 156 -252 202 -86 32 -270 40 -377 16z
m254 -180 c67 -18 142 -70 175 -121 57 -87 69 -233 31 -377 -45 -170 -162
-308 -313 -367 -81 -33 -255 -34 -323 -3 -64 30 -125 88 -157 148 -25 47 -27
59 -26 171 0 102 5 132 27 200 45 135 138 254 242 308 109 56 237 71 344 41z"/>
<path d="M20495 2170 c-74 -10 -161 -40 -223 -76 -62 -36 -168 -138 -199 -191
-14 -24 -26 -43 -28 -43 -1 0 6 44 15 98 10 53 23 121 28 150 l9 52 -103 0
c-57 0 -104 -1 -104 -3 0 -2 -72 -410 -160 -908 -88 -497 -160 -908 -160 -912
0 -4 46 -6 102 -5 l103 3 62 350 c34 193 70 392 79 444 l17 94 17 -56 c22 -71
50 -116 102 -162 177 -161 529 -129 743 67 103 94 175 213 222 365 24 79 27
104 27 243 1 138 -2 161 -22 211 -69 173 -202 267 -397 282 -38 3 -97 1 -130
-3z m170 -212 c67 -35 112 -81 144 -148 23 -50 26 -66 26 -170 0 -94 -4 -128
-23 -185 -80 -240 -246 -367 -482 -368 -83 -1 -103 3 -157 28 -123 55 -184
151 -191 300 -10 217 109 435 286 524 86 43 121 50 242 48 91 -3 112 -7 155
-29z"/>
<path d="M22675 2170 c-119 -24 -243 -96 -325 -188 -27 -31 -50 -51 -50 -45 0
11 26 158 35 201 5 22 4 22 -99 22 l-104 0 -6 -27 c-3 -16 -51 -284 -106 -598
-55 -313 -103 -580 -105 -592 -5 -23 -4 -23 99 -23 l104 0 21 118 c12 64 42
230 67 367 59 329 88 393 215 475 69 44 152 69 262 78 l81 7 18 95 c9 52 17
101 17 108 1 14 -59 15 -124 2z"/>
<path d="M26585 2170 c-276 -37 -487 -242 -571 -555 -22 -83 -30 -278 -14
-357 35 -179 160 -306 337 -343 257 -55 510 59 649 291 9 15 -22 -197 -40
-268 -4 -16 6 -18 99 -18 l103 0 6 28 c3 15 51 284 106 597 55 314 103 580
105 593 5 22 4 22 -98 22 l-102 0 -23 -132 c-32 -183 -31 -182 -52 -115 -44
142 -162 233 -333 256 -86 12 -85 12 -172 1z m253 -195 c73 -22 150 -88 187
-159 25 -50 30 -72 33 -155 7 -174 -44 -308 -162 -427 -140 -140 -330 -187
-498 -124 -75 28 -123 73 -160 148 -31 62 -33 74 -33 167 0 264 138 477 352
545 73 24 210 26 281 5z"/>
<path d="M31812 2170 c-222 -31 -405 -149 -521 -337 -65 -105 -121 -309 -121
-437 1 -128 50 -265 125 -345 55 -59 106 -91 195 -122 85 -30 280 -33 380 -6
204 54 378 197 456 372 l24 55 -110 0 -109 0 -32 -61 c-132 -247 -542 -298
-678 -83 -36 56 -56 159 -47 237 l7 57 497 2 497 3 17 65 c33 129 18 277 -39
383 -53 96 -171 180 -288 205 -75 16 -182 21 -253 12z m234 -200 c75 -37 126
-92 145 -158 14 -47 17 -191 5 -211 -5 -8 -129 -11 -402 -11 -338 0 -394 2
-394 15 0 8 11 44 24 81 47 130 132 221 258 279 77 35 129 45 222 40 63 -3 91
-9 142 -35z"/>
<path d="M36824 2169 c-321 -39 -568 -294 -625 -643 -15 -95 -7 -243 17 -316
44 -133 154 -238 297 -282 104 -33 288 -31 402 3 118 36 209 90 295 178 68 69
150 195 150 230 0 7 -36 11 -107 11 l-108 -1 -23 -49 c-67 -144 -247 -239
-427 -227 -132 8 -229 66 -275 165 -24 50 -39 186 -26 236 l6 26 495 0 494 0
15 51 c37 124 27 272 -25 385 -30 63 -111 144 -177 178 -100 51 -244 72 -378
55z m243 -199 c71 -35 115 -83 138 -149 15 -44 20 -166 9 -208 l-6 -23 -394 0
c-449 0 -410 -10 -375 93 41 120 132 222 246 277 124 59 273 63 382 10z"/>
<path d="M39020 2164 c-136 -36 -263 -126 -331 -234 -34 -54 -34 -54 -9 84 29
161 37 147 -82 144 l-102 -3 -102 -585 c-57 -322 -106 -600 -109 -617 l-6 -33
106 0 c58 0 105 3 105 8 0 17 112 643 126 701 47 205 183 343 367 371 155 24
279 -27 333 -137 41 -83 36 -155 -39 -578 l-64 -360 100 -3 c55 -1 101 -1 103
1 6 6 134 742 140 808 8 77 -9 184 -37 249 -39 88 -127 158 -234 186 -65 18
-195 17 -265 -2z"/>
<path d="M40468 2169 c-82 -11 -180 -46 -254 -90 -81 -49 -193 -172 -242 -266
-118 -227 -136 -526 -41 -692 89 -154 246 -230 454 -218 187 11 358 109 457
261 21 33 38 55 38 50 -1 -33 -71 -387 -85 -424 -26 -72 -61 -124 -120 -178
-99 -91 -210 -128 -353 -119 -154 9 -261 86 -298 214 l-15 53 -100 0 c-113 0
-111 2 -85 -95 23 -88 54 -144 111 -204 102 -108 257 -158 450 -149 278 15
500 179 605 447 12 31 68 323 135 700 63 355 118 658 121 674 l6 27 -101 0
c-96 0 -101 -1 -106 -22 -3 -13 -16 -81 -28 -152 l-23 -130 -22 61 c-12 33
-35 79 -52 101 -85 118 -262 177 -452 151z m197 -180 c158 -29 253 -131 277
-297 28 -192 -82 -426 -249 -532 -73 -47 -161 -70 -264 -70 -118 0 -185 25
-255 94 -66 67 -89 129 -88 246 3 295 173 516 429 559 72 12 85 12 150 0z"/>
<path d="M2680 2165 c0 -6 -209 -1184 -216 -1217 l-6 -28 101 0 c55 0 102 4
105 8 6 11 216 1194 216 1221 0 20 -5 21 -100 21 -55 0 -100 -2 -100 -5z"/>
<path d="M13010 2154 c0 -9 68 -285 151 -613 l151 -597 -181 -299 -182 -300
112 -3 c82 -2 116 1 124 10 8 9 865 1483 1052 1811 2 4 -47 7 -110 7 l-114 0
-263 -472 c-145 -260 -268 -479 -275 -486 -10 -11 -19 14 -45 125 -18 76 -69
293 -114 483 l-81 345 -113 3 c-99 2 -112 1 -112 -14z"/>
<path d="M21505 2148 c-5 -16 -215 -1205 -215 -1219 0 -6 39 -9 102 -7 l102 3
107 605 c60 333 108 611 108 618 1 9 -25 12 -99 12 -72 0 -102 -4 -105 -12z"/>
<path d="M23081 2108 c-6 -29 -54 -300 -106 -603 -53 -302 -98 -558 -101 -567
-5 -16 4 -18 100 -18 58 0 106 3 106 6 0 3 47 275 105 603 58 328 105 605 105
614 0 15 -13 17 -99 17 l-100 0 -10 -52z"/>
<path d="M24547 1783 c-81 -456 -82 -469 -68 -563 15 -97 42 -155 98 -212 69
-70 145 -100 268 -106 203 -9 389 78 485 228 18 28 34 49 36 47 2 -2 -5 -55
-16 -118 -11 -63 -20 -120 -20 -127 0 -10 24 -12 102 -10 l103 3 107 600 c59
330 107 608 107 618 1 15 -10 17 -102 17 l-104 0 -62 -357 c-34 -197 -73 -388
-85 -424 -70 -203 -238 -319 -441 -307 -177 12 -265 106 -265 284 0 58 80 554
126 777 l6 27 -104 0 -104 0 -67 -377z"/>
<path d="M37870 2148 c0 -7 -49 -286 -108 -620 l-108 -608 102 0 102 0 6 27
c3 16 51 285 106 598 55 314 103 580 105 593 5 22 4 22 -100 22 -77 0 -105 -3
-105 -12z"/>
<path d="M33850 1623 c-7 -32 -15 -63 -17 -70 -4 -10 55 -13 294 -13 l298 0
16 70 16 70 -298 0 -298 0 -11 -57z"/>
<path d="M6280 1163 c0 -5 -9 -60 -20 -123 -11 -63 -20 -116 -20 -117 0 -2 56
-3 125 -3 69 0 125 1 125 3 0 2 9 52 20 112 11 60 20 115 20 122 0 10 -29 13
-125 13 -69 0 -125 -3 -125 -7z"/>
<path d="M6760 1163 c0 -5 -9 -60 -20 -123 -11 -63 -20 -116 -20 -117 0 -2 56
-3 125 -3 69 0 125 4 125 8 0 5 9 58 20 118 11 60 20 112 20 117 0 4 -56 7
-125 7 -69 0 -125 -3 -125 -7z"/>
<path d="M7235 1148 c-8 -38 -35 -202 -35 -215 0 -10 31 -13 123 -13 l124 0
17 103 c10 56 20 112 23 125 5 22 5 22 -121 22 -122 0 -126 -1 -131 -22z"/>
<path d="M13920 1158 c0 -2 -9 -55 -20 -118 -11 -63 -20 -116 -20 -117 0 -2
56 -3 125 -3 69 0 125 1 125 3 0 2 9 52 20 112 11 60 20 112 20 117 0 7 -250
12 -250 6z"/>
<path d="M14391 1108 c-14 -74 -31 -170 -31 -180 0 -4 56 -8 125 -8 69 0 125
3 125 8 0 9 27 167 36 205 l6 27 -125 0 -126 0 -10 -52z"/>
<path d="M14875 1148 c-5 -16 -35 -202 -35 -217 0 -7 38 -11 123 -11 l123 0
18 108 c10 59 21 113 23 120 4 9 -24 12 -121 12 -93 0 -128 -3 -131 -12z"/>
</g>
</svg>
